<?xml version="1.0" encoding="UTF-8"?><svg id="uuid-5721965a-f28a-4100-b05b-989ecc1d2841" xmlns="http://www.w3.org/2000/svg" viewBox="0 0 200 200"><g id="uuid-30fe4608-703c-42f3-83ee-0c137c5c5397"><path id="uuid-7a5eded6-7af8-4ff2-8514-8467283d9bbb" d="M182.81,114.38l-21.5-14.38,21.5-14.38v28.76ZM108.59,175.34v-40.08l37.26-24.92,30.08,20.11-67.34,44.89ZM100,120.33l-30.39-20.33,30.39-20.33,30.4,20.33-30.4,20.33ZM91.41,175.34l-67.34-44.89,30.08-20.11,37.26,24.92v40.08ZM17.19,85.62l21.51,14.38-21.51,14.38v-28.76ZM91.41,24.66v40.08l-37.26,24.92-30.08-20.12L91.41,24.66ZM108.59,24.66l67.34,44.89-30.08,20.12-37.26-24.92V24.66ZM199.92,68.41c-.02-.13-.05-.25-.07-.38-.04-.24-.09-.49-.15-.72-.04-.14-.09-.28-.14-.42-.07-.21-.14-.42-.22-.63-.06-.14-.13-.29-.19-.42-.09-.2-.18-.39-.29-.57-.07-.14-.16-.27-.24-.4-.11-.18-.23-.36-.36-.52-.09-.13-.19-.25-.29-.37-.14-.16-.28-.32-.43-.47-.11-.11-.22-.23-.34-.33-.16-.14-.33-.28-.49-.41-.13-.1-.26-.2-.39-.29-.05-.03-.09-.08-.14-.11L104.77,1.44c-2.89-1.92-6.64-1.92-9.54,0L3.83,62.38c-.05.03-.09.08-.14.11-.14.09-.26.19-.39.29-.17.13-.33.27-.49.41-.12.1-.23.22-.34.33-.15.15-.29.31-.43.47-.11.12-.21.24-.3.37-.13.17-.24.34-.36.52-.09.13-.17.26-.25.4-.11.18-.2.37-.29.57-.06.13-.13.27-.19.42-.09.21-.16.41-.22.63-.04.14-.09.27-.13.42-.06.23-.11.48-.15.72-.03.13-.06.24-.07.38-.05.36-.08.74-.08,1.12v60.94c0,.37.03.75.08,1.13.01.12.04.24.07.37.04.24.09.48.15.72.04.14.09.28.13.42.07.21.14.42.22.63.06.14.13.28.19.41.09.19.19.38.29.57.08.13.16.26.25.39.11.18.23.35.36.52.09.13.19.26.3.37.13.16.27.32.42.46.11.12.23.23.34.34.16.14.32.28.49.41.12.1.25.2.39.29.05.03.09.07.14.11l91.4,60.94c1.44.96,3.11,1.44,4.77,1.44s3.32-.48,4.77-1.44l91.41-60.94s.09-.07.14-.11c.13-.09.26-.19.39-.29.16-.13.33-.27.49-.41.12-.11.22-.22.34-.34.15-.14.29-.31.43-.46.1-.12.2-.24.29-.37.13-.17.25-.34.36-.52.08-.13.17-.26.24-.39.11-.19.21-.38.29-.57.07-.14.14-.28.19-.41.08-.21.15-.43.22-.63.04-.14.1-.28.14-.42.06-.24.11-.48.15-.72.02-.13.05-.25.07-.37.05-.37.08-.75.08-1.13v-60.94c0-.38-.03-.76-.08-1.12Z" fill="#000" fill-rule="evenodd" stroke-width="0"/></g></svg>