<?xml version="1.0" encoding="UTF-8"?><svg id="uuid-c6458035-cd23-415b-a08a-f0359bcaf057" xmlns="http://www.w3.org/2000/svg" viewBox="0 0 151.82 200"><g id="uuid-c08e47fb-7665-4c5a-be4f-4661b6fb73a5"><path id="uuid-1318c397-522a-45d8-9685-a586c04ba769" d="M107.15,42.24c-13.97-13.94-27.26-27.26-31.22-42.24-3.89,14.98-17.29,28.3-31.26,42.24C23.75,63.16.02,86.86.02,122.44c-.91,41.91,32.33,76.63,74.24,77.55,41.91.91,76.63-32.33,77.55-74.24.02-1.1.02-2.2,0-3.31,0-35.58-23.73-59.27-44.65-80.2ZM39.05,129.35c-2.32,2.92-4.31,6.08-5.94,9.43-.25.54-.72.94-1.3,1.08h-.65c-1.69,0-3.6-3.31-3.6-3.31h0c-.5-.79-.97-1.62-1.44-2.48l-.32-.68c-4.39-10.05-.58-24.34-.58-24.34h0c1.88-6.97,4.95-13.56,9.07-19.48,2.52-3.76,5.26-7.37,8.21-10.8l3.6,3.6,17,17.36c.66.74.66,1.85,0,2.59l-17.75,19.7h0l-6.3,7.35ZM76.79,179.08c-14.5-.08-26.18-11.9-26.1-26.4.04-6.39,2.4-12.55,6.65-17.32,5.55-6.59,12.32-13.07,19.66-21.61,8.71,9.29,14.4,15.66,19.99,22.65.44.54.82,1.12,1.15,1.73,3.05,4.34,4.69,9.53,4.68,14.84.04,14.38-11.58,26.07-25.96,26.11h-.07ZM126.06,137.34h0c-.34,1.1-1.28,1.91-2.41,2.09h-.51c-1.03-.33-1.91-1.04-2.45-1.98h0c-4.55-6.83-9.71-13.23-15.41-19.12l-6.95-7.2-23.08-23.95c-4.85-4.49-9.46-9.23-13.83-14.19-.11-.19-.23-.37-.36-.54-.79-1.1-1.4-2.32-1.84-3.6v-.68c-.65-3.97.7-8.01,3.6-10.8,4.47-4.47,8.97-8.97,13.22-13.65,4.68,5.19,9.69,10.16,14.62,15.09h0c10.06,9.37,19.17,19.72,27.19,30.9,6.77,9.58,10.45,21,10.55,32.73-.06,5.06-.85,10.08-2.34,14.91Z" fill="#000" stroke-width="0"/></g></svg>