<?xml version="1.0" encoding="UTF-8"?><svg id="uuid-2f06391f-b3c2-46ae-a7f2-35f9867ad913" xmlns="http://www.w3.org/2000/svg" viewBox="0 0 200.01 200"><g id="uuid-949b2ac3-42e2-4fcb-ac0f-c78708a34ad7"><g id="uuid-36d02de9-ab66-45f9-889c-a500226e7990"><path d="M100.01,0C44.78,0,0,45.9,0,102.55c0,45.31,28.66,83.71,68.4,97.28,5,.94,6.83-2.23,6.83-4.96,0-2.46-.09-8.88-.13-17.46-27.81,6.21-33.71-13.75-33.71-13.75-4.55-11.83-11.12-15-11.12-15-9.06-6.38.67-6.25.67-6.25,10.05.71,15.31,10.58,15.31,10.58,8.93,15.67,23.39,11.16,29.11,8.53.89-6.61,3.48-11.16,6.34-13.71-22.19-2.59-45.54-11.38-45.54-50.67,0-11.21,3.88-20.36,10.27-27.5-1.03-2.59-4.46-13.04.98-27.14,0,0,8.39-2.77,27.5,10.49,7.99-2.28,16.52-3.39,25.05-3.44,8.48.04,17.05,1.16,25.05,3.44,19.11-13.26,27.46-10.49,27.46-10.49,5.45,14.11,2.01,24.55.98,27.14,6.38,7.19,10.27,16.34,10.27,27.5,0,39.38-23.39,48.04-45.67,50.58,3.57,3.17,6.79,9.42,6.79,18.97,0,13.71-.13,24.78-.13,28.13,0,2.72,1.79,5.94,6.88,4.91,39.82-13.53,68.44-51.92,68.44-97.19C200.01,45.9,155.23,0,100.01,0Z" style="fill:#1b231a; fill-rule:evenodd; stroke-width:0px;"/></g></g></svg>