<?xml version="1.0" encoding="UTF-8"?><svg id="uuid-755fe6fc-de0a-405f-a44c-dae5b7f786a3" xmlns="http://www.w3.org/2000/svg" viewBox="0 0 264.54 205.51"><g id="uuid-e2f3b40e-3ee1-4e44-b18d-e6a7435c3000"><g id="uuid-569c748e-0aa9-4956-a5b0-41c38eecc4e0"><path d="M105.19,104.3v-7.37h91.98v1.43c-11.78,3.81-29.21,7.41-33.69,8.1,2.44,1.13,3.23,2.12,4.27,2.46,3.6.43,7.17,1.09,10.69,1.96,6.93,1.58,12.66,3.08,17.38,4.74,4.9,1.82,7.5,2.66,10.39,3.49,3.38.91,6.79,1.66,10.25,2.23,2.85.42,8.9-1.67,10.32-2.04,1.42-.36,19.83-7.47,19.83-7.47,0,0,7.99-2.97,11.15-3.76,2.91-.8,2.98.17,2.98.17.26.84.47,1.69.62,2.55.29,2.72.32,5.46.08,8.19-.31,2.1-.73,4.18-1.26,6.24-.48,1.7-1.12,3.35-1.91,4.92-.59,1.02-1.5,2.62-1.81,3.31-.48.95-.79,1.99-.92,3.05-.14,1.44-.08,2.89.21,4.3.25,1.21,1.07,4.25,1.07,4.25l.96,3.8-131.83-.16v7.68H19.2c.06-.18.07-.37.03-.55-.11-.47-.65-1.16-2.71-2.39-2.65-1.72-11.03-4.73-13.46-5.61-.1-2.29-1.09-12.82,12.13-24.38,3.96-3.36,8.12-6.48,12.47-9.32,0,0,11.35-7.38,20.38-10.33" fill="none" stroke="#fff" stroke-miterlimit="10" stroke-width="5"/><path d="M257.77,148.86l-131.83-.16v7.68H19.2c-.59,1.73-8.6,4.79-14.09,5.85,2.94,4.03,8.5,7.7,14.08,10.87,5.38,2.92,10.96,5.45,16.7,7.57,2.1.72,8.37,3.16,12.1,3.45,5.2.37,10.42.27,15.59-.29,2.74-.26,5.46-.68,8.15-1.25,0,0,.52,2.05,3.78,6.55,2.36,3.11,5.25,6.3,8.14,8.18,3.44,2.16,4.58,3.3,12.04,4.65,5.54,1.05,11.21,1.31,16.82.78,3.78-.35,7.45-.47,10.71-1.37.16-4.15-.37-7.99-2.05-11.38,4.53.18,7.04.31,13.36.19,12.2-.23,25.51-2.73,36.43-4.8,9.02-1.71,23.78-5.82,30.83-8.15,4.05-1.34,13.69-4.6,14.59-4.6,1.45,0,3.63.34,6.66,1.23,4.5,1.33,7.97,2.51,15.56,5.22,7.6,2.71,14.35,5.08,18.47,5.64,3.04.42,3.41,0,3.62-1.51.35-1.91-2.33-6.27-3.44-9.69-1.39-3.45-1.66-7.25-.79-10.87.29-1.06.63-2.11,1.03-3.13.73-2.09,1.05-4.29.94-6.5-.08-1.41-.32-2.8-.69-4.16Z" fill="none" stroke="#fff" stroke-miterlimit="10" stroke-width="5"/><path d="M256.05,86.09c-.04-1.44.14-2.88.55-4.26.26-.84.53-1.58,1.03-2.99.71-2.14.98-4.41.79-6.66-.14-1.33-.36-2.66-.66-3.97l-96.68-.16v7.48H19.27c.29,2.05-8.62,5.33-14.11,6.41,2.86,3.9,8.64,7.75,14.24,10.93,5.39,2.91,10.98,5.44,16.73,7.57,2.52.89,8.04,2.93,11.94,3.37l57.12.48v-7.37h91.98v1.43c1.39-.38,3.45-.99,4.77-1.43,4.05-1.34,13.85-4.69,14.75-4.71,1.46,0,3.31.32,6.34,1.21,4.5,1.32,8.09,2.65,15.69,5.34,7.6,2.7,14.2,5.02,18.31,5.62,3.53.52,3.74-.65,3.74-2.05.08-1.79-2.57-6.3-3.68-9.73-.69-2.11-1.04-4.31-1.05-6.53Z" fill="none" stroke="#fff" stroke-miterlimit="10" stroke-width="5"/><path d="M261.38,30.56c.08,1.36.29,6.92.08,8.18-.27,1.93-.67,3.84-1.18,5.72-.55,1.71-1.38,4.18-2.02,5.3-.59,1.02-1.55,2.6-1.86,3.3-.46,1.02-.75,2.1-.87,3.21-.14,1.44-.08,2.89.21,4.3.25,1.21,1.07,4.25,1.07,4.25l.95,3.38-96.68-.16v7.48H19.27s.13-.84-2.44-2.42c-2.31-1.25-9.84-4.43-13.67-5.6-.37-1.91-1.19-12.73,12.04-24.28,3.96-3.37,8.13-6.48,12.48-9.33,0,0,10.97-7.74,22.75-11.2,2.84-.8,5.74-1.38,8.66-1.76,8.36-.68,21.75-1,23.06-.96,2.63-3.48,5.49-6.77,8.56-9.87,4.99-4.89,7.82-6.77,10.81-7.11,4.12.24,26.18,5.37,32.41,7.21,3.57,1,10.73,2.93,16.4,5.29,5.85,2.23,7.27,4.13,7.27,4.13,1.09,1.64,2.28,3.23,3.56,4.74,1.38,1.37,5.34,3.74,6.44,4.18,1.66.42,4.47.44,10.83,1.97,6.64,1.57,12.62,3.25,17.37,4.72,4.92,1.63,7.49,2.76,10.43,3.51,2.94.75,7.65,1.88,10.26,2.26,2.61.38,8.34-1.67,9.76-2.04,1.42-.36,20.36-7.38,20.36-7.38,0,0,10.22-3.63,11.14-3.93,3.1-1,3.61-1.07,3.61,2.89Z" fill="none" stroke="#fff" stroke-miterlimit="10" stroke-width="6"/><path d="M48,42.1c-6.69,0-11.73,5.1-12.07,12.33-.34,7.15,5.43,12.33,12.07,12.33s12.07-5.52,12.07-12.33-5.38-12.33-12.07-12.33ZM45.18,64.17c-5.13,0-9.29-3.64-9.25-9.49.17-4.81,4.16-9.49,9.25-9.49s9.25,4.22,9.25,9.49-4.12,9.49-9.25,9.49h0Z" fill="#fff" stroke="#fff" stroke-miterlimit="10" stroke-width="3"/><path d="M45.19,45.23c-5.13,0-9.13,4.68-9.25,9.49,0,5.85,4.16,9.49,9.25,9.49s9.25-4.22,9.25-9.49-4.12-9.49-9.25-9.49ZM40.81,61.03c-.62.02-1.23-.15-1.75-.48s-.93-.81-1.18-1.37c-.25-.56-.32-1.19-.21-1.79.11-.61.4-1.16.83-1.61.43-.44.99-.74,1.59-.87.61-.13,1.24-.07,1.81.16.57.23,1.06.63,1.41,1.14.35.51.53,1.11.53,1.73,0,.4-.07.8-.21,1.17-.15.37-.37.71-.65,1s-.62.52-.99.68c-.37.16-.77.24-1.17.25h0Z" fill="none" stroke="#fff" stroke-miterlimit="10"/><path d="M40.81,61.03c1.67,0,3.03-1.38,3.03-3.09s-1.36-3.09-3.03-3.09-3.03,1.38-3.03,3.09,1.36,3.09,3.03,3.09Z" fill="#fff" stroke="#fff" stroke-miterlimit="10"/><path d="M48,123.01c-6.69,0-11.73,5.1-12.07,12.33-.34,7.15,5.43,12.33,12.07,12.33s12.07-5.52,12.07-12.33-5.38-12.33-12.07-12.33ZM45.18,145.08c-5.13,0-9.29-3.64-9.25-9.49.17-4.81,4.16-9.49,9.25-9.49s9.25,4.22,9.25,9.49-4.12,9.49-9.25,9.49h0Z" fill="#fff" stroke="#fff" stroke-miterlimit="10" stroke-width="3"/><path d="M45.19,126.15c-5.13,0-9.13,4.68-9.25,9.49,0,5.85,4.16,9.49,9.25,9.49s9.25-4.22,9.25-9.49-4.12-9.49-9.25-9.49ZM40.81,141.95c-.62.02-1.23-.15-1.75-.48-.52-.33-.93-.81-1.18-1.37-.25-.56-.32-1.19-.21-1.79.11-.61.4-1.16.83-1.61.43-.44.99-.74,1.59-.87.61-.13,1.24-.07,1.81.16.57.23,1.06.63,1.41,1.14.35.51.53,1.11.53,1.73,0,.4-.07.8-.22,1.17s-.37.71-.65,1c-.28.29-.62.52-.99.67-.37.16-.77.24-1.17.25Z" fill="none" stroke="#fff" stroke-miterlimit="10"/><path d="M40.81,141.95c1.67,0,3.03-1.38,3.03-3.09s-1.36-3.09-3.03-3.09-3.03,1.39-3.03,3.09,1.36,3.09,3.03,3.09Z" fill="#fff" stroke="#fff" stroke-miterlimit="10"/><path d="M97.4,75.53c-1.73,6.45-3.52,11.76-3.56,11.85-.12.36-.17.75-.15,1.13.03.38.13.76.3,1.1.17.34.41.65.7.91.29.25.63.45,1,.57s.75.17,1.14.15.76-.13,1.11-.3c.35-.17.66-.41.91-.7s.45-.63.57-.99c.14-.42,2.21-6.54,4.07-13.73h-6.09Z" fill="#fff" stroke="#fff" stroke-miterlimit="10"/><path d="M83.85,75.53c-.54,1.21-.93,1.95-.95,1.99-.29.58-.33,1.26-.13,1.88s.64,1.13,1.22,1.44,1.25.37,1.88.19c.63-.18,1.16-.6,1.49-1.16.73-1.41,1.39-2.86,1.97-4.33h-5.48Z" fill="#fff" stroke="#fff" stroke-miterlimit="10"/><path d="M100.53,59.5c0,.09-.03.17-.03.26-.34,4.57-1.68,10.55-3.1,15.77h6.12c1.31-5.07,2.52-10.69,2.86-15.22.75-5.05-2.36-14.55-4.42-20.1,17.61.67,35.18,2.25,52.62,4.75,29.89,4.3,65.94,22.1,66.3,22.28.35.18.73.29,1.12.32.39.03.78-.01,1.15-.13.37-.12.72-.31,1.01-.57.3-.25.54-.56.71-.91.17-.35.28-.73.3-1.11.03-.39-.03-.78-.15-1.14-.13-.37-.33-.71-.59-1-.26-.29-.58-.53-.93-.69-1.51-.75-37.25-18.39-68.09-22.84-31.96-4.6-57.53-4.92-57.78-4.92-.49,0-.97.11-1.4.33-.43.22-.8.55-1.07.95-.27.4-.44.86-.49,1.34-.05.48.02.97.21,1.41,2.51,6.1,6.29,17.23,5.64,21.21Z" fill="#fff" stroke="#fff" stroke-miterlimit="10"/><path d="M87.35,60.1c.49,5.57-2.05,12.19-3.5,15.43h5.47c1.61-4.03,3.55-10.23,3.05-15.88-.71-7.58-3.28-14.87-7.49-21.23-.19-.27-.44-.5-.72-.67-.28-.17-.6-.29-.92-.34s-.66-.04-.99.03c-.32.08-.63.21-.9.4-.27.19-.5.44-.67.72-.17.28-.29.59-.35.92-.05.33-.04.66.03.98s.21.62.41.89c3.66,5.64,5.92,12.08,6.58,18.76Z" fill="#fff" stroke="#fff" stroke-miterlimit="10"/><path d="M97.45,156.37c-1.73,6.45-3.52,11.76-3.56,11.85-.24.73-.18,1.53.16,2.22.35.69.95,1.22,1.69,1.46.74.25,1.54.2,2.24-.14.7-.34,1.23-.94,1.49-1.67.15-.42,2.22-6.54,4.07-13.73h-6.09Z" fill="#fff" stroke="#fff" stroke-miterlimit="10"/><path d="M83.9,156.37c-.54,1.21-.93,1.95-.95,1.99-.31.59-.38,1.28-.18,1.91.2.64.64,1.17,1.23,1.48.59.31,1.28.38,1.92.18s1.17-.64,1.49-1.22c.73-1.41,1.39-2.86,1.97-4.33h-5.48Z" fill="#fff" stroke="#fff" stroke-miterlimit="10"/><path d="M100.57,140.34c-.01.09-.02.17-.03.26-.34,4.57-1.68,10.55-3.1,15.77h6.09c1.31-5.07,2.52-10.69,2.87-15.22.75-5.05-2.36-14.55-4.42-20.1,17.61.67,35.18,2.25,52.62,4.75,29.88,4.3,65.94,22.1,66.3,22.28.35.17.72.27,1.11.3.39.03.77-.02,1.14-.14.37-.12.71-.31,1-.56.29-.25.53-.56.71-.9.17-.34.28-.72.3-1.1.03-.38-.02-.77-.14-1.13-.12-.36-.32-.7-.57-.99-.25-.29-.56-.53-.91-.7-1.51-.75-37.25-18.39-68.1-22.84-19.15-2.77-38.44-4.42-57.78-4.93-.49,0-.97.11-1.4.33s-.8.55-1.07.95-.44.86-.49,1.34c-.05.48.02.97.21,1.41,2.54,6.09,6.32,17.23,5.65,21.21Z" fill="#fff" stroke="#fff" stroke-miterlimit="10"/><path d="M87.4,140.95c.5,5.57-2.05,12.19-3.5,15.43h5.47c1.61-4.03,3.55-10.23,3.05-15.88-.71-7.58-3.28-14.87-7.49-21.23-.39-.54-.98-.91-1.64-1.01s-1.34.05-1.88.44c-.54.39-.91.98-1.02,1.63-.11.66.05,1.33.44,1.87,3.66,5.64,5.92,12.08,6.57,18.76Z" fill="#fff" stroke="#fff" stroke-miterlimit="10"/></g></g></svg>