<?xml version="1.0" encoding="UTF-8"?><svg id="uuid-081439a2-d020-43ca-b9e0-2dc7bd1fb7a6" xmlns="http://www.w3.org/2000/svg" viewBox="0 0 200 200"><g id="uuid-35f6a74b-6f38-4559-b84f-bc34efb5b1c4"><path id="uuid-c99d72b4-2ab3-43da-81ca-1b4e23c8c036" d="M175,0H25C11.2,0,0,11.2,0,25v150c0,13.8,11.2,25,25,25h150c13.8,0,25-11.2,25-25V25c0-13.8-11.2-25-25-25ZM57.35,170.56H23.85v-100.77h33.5v100.77ZM40.6,56.03h-.22c-11.25,0-18.51-7.74-18.51-17.41s7.49-17.41,18.95-17.41,18.51,7.54,18.72,17.41c0,9.67-7.27,17.41-18.95,17.41ZM178.12,170.56h-33.49v-53.91c0-13.54-4.85-22.78-16.97-22.78-9.25,0-14.77,6.23-17.18,12.25-.89,2.15-1.1,5.16-1.1,8.18v56.28h-33.49s.44-91.31,0-100.77h33.49v14.27c4.46-6.86,12.42-16.64,30.19-16.64,22.04,0,38.56,14.4,38.56,45.35v57.79Z" fill="#000" fill-rule="evenodd" stroke-width="0"/></g></svg>