<svg id="Layer_2" xmlns="http://www.w3.org/2000/svg" viewBox="0 0 401.93 68.06"><g id="Logo_icons"><path d="M49.58,1.62c1.16,1.08,1.74,2.36,1.74,3.83,0,3.08-1.77,5.39-5.32,6.91-2.79,1.14-6.44,1.71-10.96,1.71-.8,0-1.42-.02-1.84-.06l-9.19,34.79c-.3,1.01-.44,1.94-.44,2.79,0,1.1.39,1.89,1.17,2.38.78.49,2.12.79,4.02.92l-.25,1.27c-2.96-.13-7.37-.19-13.24-.19s-9.76.06-12.42.19l.25-1.27c1.82-.08,3.22-.31,4.21-.67.99-.36,1.77-.95,2.34-1.77.57-.82,1.07-2.04,1.49-3.64L20.66,13.12c-2.96-.21-5.37-.32-7.22-.32-3.34,0-5.75.36-7.22,1.08,1.65.21,3,.87,4.06,1.96,1.06,1.1,1.58,2.49,1.58,4.18,0,1.82-.59,3.33-1.77,4.53-1.18,1.2-2.64,1.81-4.37,1.81s-3.17-.6-4.18-1.81c-1.01-1.2-1.52-2.65-1.52-4.34,0-1.35.36-2.66,1.08-3.93.72-1.27,1.9-2.3,3.55-3.1,2.07-1.01,4.9-1.52,8.49-1.52,3,0,7.2.21,12.61.63,4.82.34,8.13.51,9.95.51,2.24,0,4.14-.17,5.7-.51-.72-.68-1.32-1.52-1.81-2.53-.49-1.01-.73-2.15-.73-3.42,0-1.9.58-3.43,1.74-4.59,1.16-1.16,2.67-1.74,4.53-1.74s3.3.54,4.47,1.62Z" style="fill:#f3f9f2; stroke-width:0px;"/><path d="M65.77,45.88h1.2l-1.58,4.63c-1.52,4.35-4.54,6.53-9.06,6.53-2.58,0-4.42-.74-5.51-2.22-.72-1.06-1.08-2.34-1.08-3.87,0-.46.02-.82.06-1.08-1.01,2.58-2.32,4.42-3.93,5.51-1.61,1.1-3.51,1.65-5.7,1.65-2.62,0-4.58-.68-5.89-2.03s-1.96-3.32-1.96-5.89c0-3.97,1.07-8.05,3.2-12.23,2.13-4.18,4.79-7.65,7.98-10.39,3.19-2.75,6.24-4.12,9.16-4.12,2.41,0,3.72,1.2,3.93,3.61l.82-2.66c4.1-.04,7.92-.36,11.47-.95l-8.55,28.39c-.17.55-.25,1.06-.25,1.52,0,.76.34,1.14,1.01,1.14,1.22,0,2.34-1.33,3.36-3.99l1.33-3.55ZM48.35,50.69c.89-1.35,1.9-3.78,3.04-7.29l4.56-15.21c.04-.21.06-.53.06-.95,0-1.18-.4-1.77-1.2-1.77-1.18,0-2.63,1.23-4.34,3.68-1.71,2.45-3.18,5.53-4.4,9.25-1.23,3.72-1.84,7.37-1.84,10.96,0,1.23.1,2.09.32,2.6.21.51.59.76,1.14.76.89,0,1.77-.68,2.66-2.03Z" style="fill:#f3f9f2; stroke-width:0px;"/><path d="M99.74,28.51c0,3.68-1.21,8.12-3.64,13.34-2.43,5.22-5.38,9.9-8.84,14.04-2.66,3.17-5.44,5.73-8.33,7.7-2.89,1.96-5.78,3.28-8.65,3.96-1.44.34-2.68.51-3.74.51-1.69,0-2.99-.37-3.9-1.11-.91-.74-1.36-1.76-1.36-3.07s.46-2.35,1.39-3.26c.93-.91,2.16-1.36,3.68-1.36,3.04,0,5.64,1.86,7.79,5.58,2.75-1.23,5.2-2.81,7.35-4.75l-5.13-31.37c-.21-1.1-.39-1.83-.54-2.19-.15-.36-.41-.54-.79-.54-.42,0-.79.25-1.11.76-.32.51-.79,1.58-1.43,3.23l-1.33,3.55h-1.2l1.58-4.63c.84-2.41,1.93-4.1,3.26-5.07,1.33-.97,2.97-1.46,4.91-1.46,2.11,0,3.78.56,5.01,1.68,1.22,1.12,2.05,3.07,2.47,5.86l2.72,20.28c2.79-4.06,5.01-8.41,6.65-13.05-1.99-1.1-3.58-2.49-4.78-4.18-1.2-1.69-1.81-3.49-1.81-5.39,0-1.6.43-2.87,1.3-3.8.87-.93,2.08-1.39,3.64-1.39,3.21,0,4.82,2.05,4.82,6.15Z" style="fill:#f3f9f2; stroke-width:0px;"/><path d="M110.76,51.96c0,.51.12.88.35,1.11.23.23.52.35.86.35.42,0,.92-.26,1.49-.79.57-.53,1.15-1.59,1.74-3.2l1.33-3.55h1.2l-1.58,4.63c-.85,2.45-2.09,4.15-3.74,5.1s-3.4,1.43-5.26,1.43c-2.11,0-3.76-.55-4.94-1.65-1.18-1.1-1.77-2.68-1.77-4.75,0-1.31.25-2.81.76-4.5l9.7-32.25c.21-.76.32-1.35.32-1.77,0-.84-.33-1.46-.98-1.84-.66-.38-1.76-.57-3.33-.57l.44-1.33c3.34-.04,6.36-.27,9.06-.7,2.7-.42,5.34-1.06,7.92-1.9l-13.37,44.99c-.13.42-.19.82-.19,1.2Z" style="fill:#f3f9f2; stroke-width:0px;"/><path d="M123.12,35.33c1.65-3.7,4.13-6.78,7.45-9.25s7.36-3.71,12.13-3.71c3.68,0,6.47.93,8.4,2.79,1.92,1.86,2.88,4.52,2.88,7.98s-.82,7.23-2.47,10.93c-1.65,3.7-4.13,6.78-7.45,9.25s-7.36,3.71-12.13,3.71c-3.67,0-6.47-.93-8.4-2.79-1.92-1.86-2.88-4.52-2.88-7.98s.82-7.23,2.47-10.93ZM137.88,28.39c-1.82,3.17-3.39,7-4.72,11.5-1.33,4.5-2,8.61-2,12.32,0,1.31.09,2.23.29,2.76.19.53.5.79.92.79,1.14,0,2.61-1.53,4.4-4.59,1.79-3.06,3.36-6.81,4.69-11.25,1.33-4.44,2-8.64,2-12.61,0-1.48-.1-2.46-.29-2.95-.19-.49-.46-.73-.79-.73-1.18,0-2.68,1.58-4.5,4.75Z" style="fill:#f3f9f2; stroke-width:0px;"/><path d="M187.37,24.11c1.1,1.16,1.65,2.63,1.65,4.4,0,2.15-.68,4.01-2.03,5.58-1.35,1.56-3.06,2.34-5.13,2.34-1.56,0-2.75-.4-3.55-1.2-.8-.8-1.2-1.98-1.2-3.55,0-1.86.67-3.55,2.03-5.07,1.35-1.52,2.98-2.45,4.88-2.79-.51-.13-.8-.19-.89-.19-1.35,0-2.58.27-3.68.82-1.1.55-2.31,1.9-3.64,4.06-1.33,2.15-2.74,5.45-4.21,9.89l-4.62,17.74h-11.22l7.73-27.5c.17-.63.25-1.18.25-1.65,0-.68-.27-1.01-.82-1.01-.68,0-1.29.3-1.84.89-.55.59-1.1,1.63-1.65,3.1l-1.46,3.87h-1.2l1.77-4.94c1.56-4.35,4.71-6.53,9.44-6.53,2.03,0,3.51.55,4.44,1.65.93,1.1,1.39,2.51,1.39,4.25,0,.59-.02,1.04-.06,1.33,1.22-2.66,2.54-4.53,3.96-5.61,1.42-1.08,3.14-1.62,5.16-1.62,1.9,0,3.4.58,4.5,1.74Z" style="fill:#f3f9f2; stroke-width:0px;"/><path d="M320.89,10.27l-.32,1.27c-1.73.51-3.19,1.25-4.37,2.22-1.18.97-2.51,2.75-3.99,5.32l-20.72,36.37h-4.75l-3.49-27.88-17.05,27.88h-4.75l-5.01-39.86c-.17-1.39-.58-2.41-1.24-3.04-.66-.63-1.34-.97-2.06-1.01l.32-1.27c2.41.13,5.96.19,10.65.19,3.97,0,7.01-.06,9.12-.19l-.32,1.27c-1.23.09-2.07.39-2.53.92-.47.53-.7,1.55-.7,3.07l.06,1.33,2.79,25.66,10.46-16.86-1.27-10.08c-.13-1.39-.45-2.41-.98-3.04-.53-.63-1.09-.97-1.68-1.01l.32-1.27c2.28.13,5.62.19,10.01.19,4.86,0,8.53-.06,11.03-.19l-.32,1.27c-1.94.09-3.29.39-4.02.92-.74.53-1.11,1.55-1.11,3.07,0,.55.02.99.06,1.33l2.72,25.03,13.37-23.32c.89-1.6,1.33-2.87,1.33-3.8,0-1.06-.48-1.83-1.43-2.31-.95-.49-2.36-.79-4.21-.92l.32-1.27c1.18.13,4.18.19,9,.19,1.86,0,3.44-.06,4.75-.19Z" style="fill:#f3f9f2; stroke-width:0px;"/><path d="M320.82,26.04c0-.72-.3-1.08-.89-1.08-.68,0-1.29.3-1.84.89-.55.59-1.1,1.63-1.65,3.1l-1.46,3.87h-1.2l1.77-4.94c1.56-4.35,4.71-6.53,9.44-6.53,2.28,0,3.95.55,5.01,1.65,1.06,1.1,1.58,2.49,1.58,4.18,0,.93-.17,1.94-.51,3.04l-6.59,19.52c-.21.72-.32,1.23-.32,1.52,0,.76.36,1.14,1.08,1.14,1.22,0,2.34-1.33,3.36-3.99l1.33-3.55h1.2l-1.58,4.63c-1.52,4.35-4.54,6.53-9.06,6.53-2.15,0-3.82-.51-5.01-1.52-1.18-1.01-1.77-2.51-1.77-4.5,0-1.35.32-2.98.95-4.88l5.83-17.49c.21-.55.32-1.08.32-1.58ZM325.29,7.29c1.41-1.14,3.28-1.71,5.61-1.71,1.86,0,3.26.36,4.21,1.08.95.72,1.43,1.8,1.43,3.23,0,1.94-.74,3.53-2.22,4.75-1.48,1.23-3.34,1.84-5.58,1.84-1.82,0-3.2-.36-4.15-1.08-.95-.72-1.43-1.75-1.43-3.1,0-2.2.71-3.87,2.12-5.01Z" style="fill:#f3f9f2; stroke-width:0px;"/><path d="M344.27,50.95c0,.51.12.88.35,1.11.23.23.52.35.86.35.42,0,.92-.26,1.49-.79.57-.53,1.15-1.59,1.74-3.2l1.33-3.55h1.2l-1.58,4.63c-.85,2.45-2.09,4.15-3.74,5.1s-3.4,1.43-5.26,1.43c-2.11,0-3.76-.55-4.94-1.65-1.18-1.1-1.77-2.68-1.77-4.75,0-1.31.25-2.81.76-4.5l9.7-32.25c.21-.76.32-1.35.32-1.77,0-.84-.33-1.46-.98-1.84-.66-.38-1.76-.57-3.33-.57l.44-1.33c3.34-.04,6.36-.27,9.06-.7,2.7-.42,5.34-1.06,7.92-1.9l-13.37,44.99c-.13.42-.19.82-.19,1.2Z" style="fill:#f3f9f2; stroke-width:0px;"/><path d="M364.29,50.95c0,.51.12.88.35,1.11.23.23.52.35.86.35.42,0,.92-.26,1.49-.79.57-.53,1.15-1.59,1.74-3.2l1.33-3.55h1.2l-1.58,4.63c-.85,2.45-2.09,4.15-3.74,5.1s-3.4,1.43-5.26,1.43c-2.11,0-3.76-.55-4.94-1.65-1.18-1.1-1.77-2.68-1.77-4.75,0-1.31.25-2.81.76-4.5l9.7-32.25c.21-.76.32-1.35.32-1.77,0-.84-.33-1.46-.98-1.84-.66-.38-1.76-.57-3.33-.57l.44-1.33c3.34-.04,6.36-.27,9.06-.7,2.7-.42,5.34-1.06,7.92-1.9l-13.37,44.99c-.13.42-.19.82-.19,1.2Z" style="fill:#f3f9f2; stroke-width:0px;"/><path d="M381.34,54.69c1.31,0,2.4-.43,3.26-1.3s1.3-2.04,1.3-3.52c0-1.35-.32-2.78-.95-4.28-.63-1.5-1.54-3.22-2.72-5.16-1.39-2.24-2.38-3.99-2.95-5.26-.57-1.27-.86-2.68-.86-4.25,0-2.83,1.08-5.13,3.23-6.91,2.15-1.77,5.28-2.66,9.38-2.66,3.13,0,5.72.56,7.79,1.68,2.07,1.12,3.11,2.99,3.11,5.61,0,1.44-.4,2.74-1.2,3.9-.8,1.16-1.9,1.74-3.29,1.74-1.27,0-2.26-.5-2.98-1.49-.72-.99-1.08-2.27-1.08-3.83,0-1.22.2-2.38.6-3.45.4-1.08.88-1.91,1.43-2.5-.34-.17-.87-.25-1.58-.25-1.48,0-2.6.43-3.36,1.3-.76.87-1.14,2.12-1.14,3.77,0,1.06.23,2.08.7,3.07.46.99,1.22,2.38,2.28,4.15l.76,1.27c1.39,2.41,2.38,4.36,2.95,5.86.57,1.5.86,2.95.86,4.34,0,1.77-.49,3.38-1.46,4.82-.97,1.44-2.41,2.58-4.31,3.42-1.9.84-4.2,1.27-6.91,1.27-3.42,0-6.23-.62-8.43-1.87-2.2-1.25-3.3-3.33-3.3-6.24,0-1.6.39-2.95,1.17-4.02s1.83-1.62,3.14-1.62c1.22,0,2.22.51,2.98,1.52.76,1.01,1.14,2.37,1.14,4.06,0,1.18-.16,2.24-.47,3.17-.32.93-.75,2.01-1.3,3.23.63.3,1.37.44,2.22.44Z" style="fill:#f3f9f2; stroke-width:0px;"/><path d="M240.14,36.02c-10.89,0-19.06,8.17-19.06,19.06,0-10.89-8.17-19.06-19.06-19.06,10.89,0,19.06-8.17,19.06-19.06,0,10.89,8.17,19.06,19.06,19.06Z" style="fill:#7a8279; stroke-width:0px;"/></g></svg>