<?xml version="1.0" encoding="UTF-8"?><svg id="uuid-9e5466fc-4460-435d-921f-9e5d8380b297" xmlns="http://www.w3.org/2000/svg" viewBox="0 0 384.25 61.77"><g id="uuid-1a9cf2d6-88b0-4425-b40b-6b7f889276e4"><g id="uuid-24218675-684b-4717-a852-17afbf7a2c8b"><path d="M21.42,11.53v31.5c0,2.34-2.09,4.31-4.63,4.31s-4.63-2.03-4.63-4.31V11.53H3.8c-1.96,0-3.8-1.96-3.8-4.06C0,5.2,1.71,3.36,3.8,3.36h25.98c2.09,0,3.8,1.84,3.8,4.12,0,2.09-1.84,4.06-3.8,4.06h-8.36Z" fill="#fff" stroke-width="0"/><path d="M54.88,21.04c.06-2.15,2.09-3.93,4.44-3.93s4.44,1.71,4.44,3.93v22.37c0,2.22-2.03,3.93-4.44,3.93s-4.37-1.77-4.44-3.93v-.57c-1.9,3.11-5.51,4.75-8.87,4.75-7.54,0-14.38-5.58-14.38-15.4s6.84-15.34,14.38-15.34c1.9,0,6.34.82,8.87,4.75v-.57ZM47.72,39.73c3.99,0,7.22-3.55,7.22-7.48s-3.23-7.48-7.22-7.48c-4.44,0-6.97,3.55-6.97,7.48s2.54,7.48,6.97,7.48Z" fill="#fff" stroke-width="0"/><path d="M81.36,59.12c-.82,1.96-2.85,3.11-5.58,2.47-2.16-.51-3.42-3.04-2.54-5.32l4.94-12.29-9.19-21.42c-.82-2.28.44-4.69,2.6-5.26,2.79-.7,4.82.57,5.51,2.53l5.58,14.45,5.7-14.45c.7-1.96,2.72-3.23,5.51-2.53,2.16.57,3.42,2.98,2.6,5.26l-15.15,36.56Z" fill="#fff" stroke-width="0"/><path d="M110.77,43.41c0,2.22-2.03,3.93-4.44,3.93s-4.37-1.77-4.44-3.93V4.94c.06-2.15,2.09-3.93,4.44-3.93s4.44,1.71,4.44,3.93v38.47Z" fill="#fff" stroke-width="0"/><path d="M116.91,32.13c0-9.31,6.91-15.27,15.53-15.27s15.59,5.96,15.59,15.27-6.97,15.46-15.59,15.46-15.53-6.15-15.53-15.46ZM139.15,32.13c0-3.99-3.04-6.72-6.72-6.72s-6.65,2.72-6.65,6.72,3.04,6.91,6.65,6.91,6.72-2.85,6.72-6.91Z" fill="#fff" stroke-width="0"/><path d="M176.16,21.74c-.32,2.22-2.41,3.23-4.37,3.23-.63,0-1.58-.06-2.15-.06-4.94,0-6.59,3.8-6.72,11.22v7.29c0,2.22-2.03,3.93-4.44,3.93s-4.37-1.77-4.44-3.93v-22.37c.06-2.15,2.09-3.93,4.44-3.93s4.44,1.71,4.44,3.93v3.23c1.65-5.51,4.75-7.41,7.79-7.41s6.02.7,5.45,4.88Z" fill="#fff" stroke-width="0"/><path d="M284.07,10.9l5.2,18.95,7.92-24.97c.7-2.15,3.49-3.3,5.77-2.66,2.41.7,3.74,3.42,2.98,5.64l-11.79,34.92c-.7,2.15-2.28,3.55-4.31,3.55h-.63c-2.09,0-3.8-1.46-4.37-3.55l-5.13-19.71-5.13,19.71c-.57,2.09-2.28,3.55-4.37,3.55h-.63c-2.03,0-3.61-1.39-4.31-3.55l-11.79-34.92c-.76-2.22.57-4.94,2.98-5.64,2.28-.63,5.07.51,5.77,2.66l7.92,24.97,5.2-18.95c.51-1.9,1.96-3.04,4.18-3.04h.38c2.22,0,3.68,1.14,4.18,3.04Z" fill="#fff" stroke-width="0"/><path d="M315.82.32c2.98,0,5.39,2.22,5.39,5.13s-2.41,5.2-5.39,5.2-5.51-2.28-5.51-5.2,2.54-5.13,5.51-5.13ZM320.25,42.39c0,2.22-2.03,3.93-4.44,3.93s-4.37-1.77-4.44-3.93v-22.37c.06-2.15,2.09-3.93,4.44-3.93s4.44,1.71,4.44,3.93v22.37Z" fill="#fff" stroke-width="0"/><path d="M336.73,42.39c0,2.22-2.03,3.93-4.44,3.93s-4.37-1.77-4.44-3.93V3.93c.06-2.15,2.09-3.93,4.44-3.93s4.44,1.71,4.44,3.93v38.47Z" fill="#fff" stroke-width="0"/><path d="M353.33,42.39c0,2.22-2.03,3.93-4.44,3.93s-4.37-1.77-4.44-3.93V3.93c.06-2.15,2.09-3.93,4.44-3.93s4.44,1.71,4.44,3.93v38.47Z" fill="#fff" stroke-width="0"/><path d="M361.19,35.87c1.96-.89,3.8-.06,4.75,1.08,1.58,1.71,3.49,2.6,5.58,2.6,1.96,0,3.8-.32,3.8-1.84,0-1.27-.76-1.71-2.92-2.41l-3.36-1.2c-8.87-2.98-8.81-7.16-8.81-9.89,0-4.37,5.26-8.43,11.47-8.43,4.25,0,8.62,1.33,10.65,4.88,1.08,1.9.57,3.74-.76,4.5-1.96,1.14-3.8.7-5.64-.7-1.27-.95-2.41-1.33-3.55-1.33-1.9,0-3.23.63-3.23,1.77,0,.95.76,1.52,2.54,2.09l4.5,1.52c7.16,2.34,8.05,6.97,8.05,8.87,0,6.27-6.59,9.25-12.8,9.25-4.75,0-10.33-1.96-11.85-6.34-.63-1.84.13-3.8,1.58-4.44Z" fill="#fff" stroke-width="0"/><path d="M233.05,26.9c-10.89,0-19.06,8.17-19.06,19.06,0-10.89-8.17-19.06-19.06-19.06,10.89,0,19.06-8.17,19.06-19.06,0,10.89,8.17,19.06,19.06,19.06Z" fill="none" stroke="#fff" stroke-linecap="round" stroke-linejoin="round" stroke-width="4"/></g></g></svg>